<?xml version="1.0" encoding="UTF-8"?>
<svg id="Layer_2" xmlns="http://www.w3.org/2000/svg" viewBox="0 0 822.07 766.66">
  <defs>
    <style>
      .cls-1 {
        fill: #038443;
      }
    </style>
  </defs>
  <g id="Layer_1-2" data-name="Layer_1">
    <g>
      <path class="cls-1" d="M399.75,235.71c-2.15-6.86-1.16-13.99,1.03-21.01-.55-1.98-1.02-3.87-1.6-5.73-1.12-3.58-1.25-7.16.01-10.7,1.27-3.56,1.3-7.13.38-10.71-1.1-4.28-1.29-8.47.11-12.76.97-2.97.8-6.11-.17-9.08-1.44-4.4-1.68-8.74.08-13.1.53-1.32.63-2.73.5-4.13-.4-4.3-.82-8.6-1.31-12.89-.46-4.08-2.07-7.83-3.76-11.49-1.33-2.88-2.16-6.03-4.08-8.57-1.6-.22-2.46.78-3.37,1.58-8.98,7.85-14.92,17.61-18.2,29.03-1.66,5.78-2.55,11.71-3.38,17.66-.12.83-.15,1.68-1.2,2.4-2.26.05-3.48-1.58-4.35-3.54-2.27-5.12-3.93-10.41-4.85-15.97-1.8-10.81.52-20.75,5.83-30.17,1.78-3.15,3.35-6.41,4.98-9.55-.79-1.02-1.4-.38-1.89-.07-5.27,3.36-9.31,7.96-12.89,13-6.42,9.03-10.19,19.17-12.43,29.95-.31,1.5-.63,3.01-.99,4.49-.38,1.56-1.23,2.79-2.92,3.54-1.7-.42-2.72-1.65-3.16-3.36-.48-1.89-.92-3.8-1.24-5.72-1.86-11.13-1.94-22.19,1.1-33.18,1.78-6.44,4.75-12.2,8.9-17.38,2.36-2.94,4.89-5.68,7.83-8.11,2.79-2.3,5.17-5.08,7.71-7.67.26-.27.36-.71.51-1.04-.69-.78-1.35-.3-1.95-.09-6.79,2.44-12.75,6.24-18.16,10.97-9.92,8.68-16.61,19.47-20.86,31.86-.59,1.73-1.18,3.44-2.37,4.86-.44.53-.85,1.13-1.67,1.12-.86-.02-1.18-.66-1.39-1.32-.16-.52-.21-1.1-.23-1.65-.72-17.93,3.19-34.67,13.16-49.75,5.47-8.27,13.12-13.99,22.22-17.81,3.6-1.51,7.19-3.05,10.76-4.65.84-.38,1.88-.59,2.32-1.6-3.25-.66-8.32-.68-11.46-.01-4.66.99-9.13,2.53-13.43,4.62-4.02,1.96-7.9,4.17-11.73,6.47-.71.42-1.39.92-2.15.81-1.2-.68-1.21-1.69-1.05-2.65.34-2.08,1.02-4.06,2.28-5.79,6.77-9.25,15.39-16.09,26.18-20.11,4.59-1.71,9.35-2.8,14.08-4.04,2.01-.53,3.99-1.16,6.37-1.86-1.92-2.15-4.14-2.9-6.37-3.46-3.11-.79-6.28-1.31-9.41-2.02-2.16-.49-4.43-.56-6.42-1.51-1.47-1.6-1.81-3.18-.34-4.96,1.59-.91,3.38-1.12,5.21-1.13,5.03-.02,10.05-.06,15.08-.04,2.94.01,5.81.69,8.68,1.26,3.01.6,6.02,1.21,9.03,1.77.94.18,1.92.36,3.05-.41-.63-2.1-2.53-3.2-3.82-4.73-1.44-1.71-2.96-3.34-4.4-5.05-1.31-1.56-3.24-2.66-3.76-4.8,1.11-1.73,2.71-1.54,4.2-1.34,3.51.47,6.79,1.66,9.72,3.65,2.53,1.73,4.93,3.65,7.41,5.47,2.11,1.56,3.94,3.53,6.35,4.46,1.15-.36,1.26-1.26,1.51-2.03,1.24-3.85,2.46-7.71,3.67-11.57.55-1.74,1.01-3.53,3.22-4.33,2.67-.14,4.09,1.76,5.03,4.01.96,2.31,1.63,4.75,2.37,7.15.69,2.26,1.21,4.58,2.55,6.46,1.29.48,1.99-.35,2.72-.91,2.88-2.21,5.71-4.48,8.58-6.7,4.07-3.15,8.69-4.98,13.8-5.59,1.25-.15,2.48-.27,3.64.91-1.52,2.97-4.26,4.8-6.21,7.27-1.97,2.5-4.24,4.78-6.27,7.03.16,1.17.87,1.23,1.57,1.28,1.43.12,2.75-.34,4.08-.77,5.36-1.74,10.91-2.31,16.5-2.47,4.33-.12,8.66.02,12.99.02,1.97,0,3.9.13,5.83,1.11,1.41,1.53,1.04,3.19.07,5.08-7.35,2.01-15.54,1.55-22.43,6.59,1.75,1.21,3.52,1.5,5.18,1.97,3.76,1.06,7.56,1.97,11.33,2.99,8.97,2.43,16.61,7.16,23.18,13.65,2.48,2.45,5.04,4.84,6.91,7.84.97,1.55,1.83,3.16,2.09,4.98.15,1.07.41,2.24-.94,3.22-1.56-.14-2.88-1.21-4.29-2.03-5.08-2.95-10.26-5.7-15.78-7.71-5.84-2.12-11.83-3.15-18.04-2.27-.27,1.07.55,1.25,1.11,1.51,3.29,1.53,6.56,3.13,9.92,4.48,15.32,6.15,25.5,17.1,30.97,32.61,2.37,6.73,4.53,13.54,5.26,20.64.52,5.09,1.56,10.23.44,15.39-.15.69-.25,1.37-.91,1.87-1.02.52-1.83,0-2.54-.74-.9-.92-1.31-2.13-1.79-3.29-2.07-5.03-4.21-10.03-6.67-14.9-6.63-13.13-16.97-22.29-30.17-28.44-.63-.29-1.29-.52-1.95-.75-.65-.22-1.32-.41-1.96-.6-.74.83-.11,1.42.29,1.87,2.49,2.83,4.99,5.68,7.97,8.01,10.1,7.9,15.54,18.41,17.55,30.89,1.01,6.24.98,12.47.18,18.75-.56,4.42-1,8.86-1.71,13.27-.28,1.76-.88,3.22-2.75,3.88-1.44.03-2.32-.85-2.81-2.07-.57-1.42-1.03-2.89-1.42-4.37-.79-2.97-1.5-5.95-2.24-8.93-2.29-9.21-6.35-17.57-12.27-24.98-3.05-3.82-6.4-7.39-10.57-10.06-.57-.37-1.11-.84-1.87-.76-.57.53-.18,1.04.07,1.51,1.49,2.84,2.94,5.71,4.53,8.49,4.54,7.95,6.95,16.45,6.41,25.62-.43,7.32-2.57,14.26-5.59,20.91-.77,1.69-1.93,3.03-3.59,3.64-1.4-.38-1.52-1.42-1.68-2.35-.6-3.43-1.19-6.87-1.73-10.31-1.45-9.23-4.65-17.78-9.8-25.6-2.65-4.02-8.83-10.41-12.57-12.88-1.47.91-1.96,2.6-2.89,3.94-3.28,4.69-5.04,9.9-5.62,15.57-.3,2.91-.9,5.78-1.31,8.68-.47,3.34-.56,6.64.58,9.92,1.28,3.67,1.27,7.4-.05,11.09-1.37,3.82-1.39,7.69-.2,11.52,1.08,3.46,1.04,6.85.08,10.3-1.19,4.28-1.16,8.54.32,12.77.91,2.59.71,5.21.11,7.84-.62,2.72-1.39,5.41-1.27,8.25.07,1.54.01,3.09.69,4.52,1.44,3.07,1.2,6.25.68,9.45-.38,2.33-.83,4.65-1.17,6.51.68,2.34,2.18,3.1,3.81,3.6,2.27.68,4.57,1.26,6.87,1.82,3.53.86,7.06,1.67,10.6,2.48,1.1.25,2.2.48,2.68,1.7.23,1.12-.31,1.93-1.17,2.48-.94.6-1.95,1.09-2.95,1.58-8.14,4-16.33,7.92-24.21,12.44-1.57.9-3.16,1.84-4.98,2.13-2.85.45-5.5-.09-8.08-1.45-8.03-4.22-16.11-8.35-24.18-12.5-1.24-.64-2.51-1.23-3.73-1.91-1.02-.57-1.78-1.36-1.6-2.65.44-1.29,1.56-1.51,2.65-1.78,5.55-1.38,11.1-2.78,16.66-4.13,1.83-.45,3.5-1.03,4.4-3.87Z"/>
      <path class="cls-1" d="M464.93,314.85c2.95-3.49,5.88-6.66,9.08-9.57,2.81-2.56,5.91-4.66,9.66-5.66,4.42-1.19,8.07.07,10.76,3.65,2.52,3.36,2.9,7.26,1.51,11.14-1.41,3.96-6.81,5.39-10.62,2.95-1.16-.74-2.11-1.81-3.14-2.75-.83-.75-1.62-1.54-2.46-2.27-.19-.17-.51-.18-1.05-.35-2.52,1.58-4.41,3.87-5.71,6.72-.76,1.67-.7,3.29.3,4.78.69,1.04,1.51,2.01,2.38,2.9,3.61,3.69,7.33,7.28,10.89,11.03,3.78,3.98,8.17,7.14,12.72,10.18,2.95,1.97,5.92,2.23,9.17,1.3,1.21-.34,2.38-.84,3.6-1.09,3.08-.63,5.85-.06,7.96,2.46,2.31,2.75,2.33,5.88,1.31,9.09-.65,2.04-2.35,3.07-4.23,3.77-3.87,1.45-7.88,1.86-11.95,1.21-3.04-.48-5.95-1.43-8.76-2.74-6.75-3.15-12.87-7.27-18.62-11.97-3.45-2.83-6.85-5.73-10.26-8.61-1.18-1-2.37-1.95-3.8-2.18-2.01.06-3.2,1.26-4.45,2.39-2.69,2.43-5.48,4.76-8.08,7.29-3.67,3.56-10.68,3.46-15.15.2-.8-.59-1.45-1.34-1.8-2.27-1.55-4.21-2.1-8.39.46-12.28,1.79-1.66,3.96-1.67,5.86-2.09,2.68.09,4.61,1.31,6.28,3.15,1.11,1.23,2.24,2.53,4.28,2.83,2.77-1.48,4.68-3.57,4.1-7.43-1.88-1.52-3.8-3.11-5.77-4.66-9.76-7.68-19.53-15.34-29.3-23.01-2.54-1.99-5.1-3.93-8.66-4.3-2.39.24-4.57,1.3-6.62,2.9-11.07,8.72-22.2,17.36-33.29,26.06-1.53,1.2-3.06,2.44-3.84,4.38.4,2.77,1.96,4.52,4.2,5.53,2.03.15,3.13-.99,4.07-2.2,2.31-2.96,5.43-3.11,8.73-2.75,2.29.26,3.93,1.55,4.71,3.66,1.58,4.27.95,8.47-1.94,11.81-2.5,2.89-6.22,3.6-10.02,2.89-2.21-.42-4.26-1.3-5.98-2.85-2.38-2.15-4.83-4.23-7.22-6.36-1.35-1.2-2.57-2.59-4.47-2.9-1.7,0-2.93.95-4.07,1.99-7.64,7.02-16.31,12.65-24.96,18.29-1.63,1.07-3.34,2.02-5.08,2.92-5.88,3.04-12.07,3.29-18.33,1.59-6.51-1.76-8.51-8.87-4-13.9,2.1-2.35,4.86-2.53,7.73-1.91.94.21,1.8.77,2.74,1.03,4.25,1.19,8.31.9,11.92-1.89,1.77-1.36,3.53-2.75,5.13-4.31,5.99-5.85,11.92-11.78,17.85-17.69.59-.59,1.07-1.28,1.48-1.77.82-2.37.36-4.32-1.01-6.1-1.51-1.95-2.74-4.16-5-5.83-1.67,1.65-3.25,3.2-4.81,4.77-2.7,2.72-5.8,3.06-9.24,1.64-1.51-.63-2.59-1.66-3.04-3.23-1.16-4.04-1.6-8.09,1.62-11.42,3.24-3.35,7.23-4.6,11.85-3.26,2.6.75,4.89,2.01,6.8,3.95,3.13,3.19,6.26,6.37,9.4,9.56.48.49.8,1.16,1.95,1.34,9.99-8.49,19.88-17.47,29.94-26.26.71-.62,1.59-1.18,1.68-2.31-.41-1.16-1.51-1.57-2.45-2.12-16-9.31-32.78-16.74-50.68-21.63-11.87-3.25-23.91-5.59-36.08-7.18-8.01-1.05-16.08-1.63-24.16-2.1-7.25-.42-14.5-.56-21.75-.67-1.13-.02-1.13-.06-2.94-1.19-.33-1.29.54-2.08,1.28-2.89.95-1.05,2.18-1.72,3.42-2.37,10.63-5.57,21.93-9.03,33.84-10.3,4.29-.46,8.65-.21,12.98-.25,13.23-.14,26.11,2.12,38.8,5.65,14.87,4.14,28.91,10.25,42.4,17.72,6.47,3.58,13.1,6.88,19.59,10.42,4.71,2.57,9.28,2.51,13.93-.09,4.14-2.32,8.35-4.52,12.49-6.83,15.17-8.44,30.92-15.55,47.54-20.64,8.96-2.75,18.1-4.52,27.44-5.51,6.98-.74,13.93-.71,20.9-.61,14.1.2,27.27,3.9,39.6,10.71,2.94,1.62,3.46,2.26,4.37,5.11-.39.92-1.19,1.12-2.06,1.14-2.09.04-4.19.05-6.28.04-9.91-.05-19.78.64-29.66,1.43-10.17.81-20.22,2.42-30.2,4.42-12.87,2.59-25.6,5.74-37.76,10.84-8.89,3.73-17.54,7.97-25.95,12.67-2.17,1.21-4.57,2.05-6.59,3.83.42,1.71,1.81,2.51,2.9,3.49,4.36,3.91,8.77,7.77,13.16,11.65,5.02,4.43,10.03,8.87,15.06,13.29.3.26.71.39,1.47.8Z"/>
      <path class="cls-1" d="M670.96,520.56c1.92.86,2.6,2.29,3.5,3.5,1.71,2.3,3.79,3.98,6.69,4.69,3.7.9,6.91.07,9.78-2.24,1.74-1.4,3.18-3.12,4.44-4.98.94-1.38,1.97-2.71,3.04-4,.33-.4.88-.66,1.37-.89.2-.09.52.06.92.13,1.17,2.31-1.24,4.54-.19,7.02,2.71,3.62,5.06,4.04,8.62,1.41,2.32-1.72,3.71-4.13,4.99-6.62.62-1.22.82-2.68,2.04-3.49.94-.14,1.27.51,1.65,1.08.46.7.9,1.42,1.38,2.1,3.46,4.94,8.16,6.51,13.9,4.56,1.58-.53,3.07-1.32,4.58-2.04,2.24-1.06,3.42-2.87,3.4-5.32-.04-4.6.17-9.21-.4-13.8-.17-1.38-.33-2.77-.34-4.16-.03-7.42-1.24-14.72-2.1-22.05-.87-7.47-2.04-14.91-3.06-22.37-.75-5.52-1.46-11.05-2.21-16.57-.57-4.22.24-8.32.97-12.43.04-.22.38-.38.58-.57.96-.4,1.63.03,2.04.86.3.62.47,1.31.63,1.98,1.44,5.97,2.61,11.98,3.33,18.08.92,7.89,2.09,15.75,3.07,23.63.99,8.02,1.78,16.07,2.84,24.08.71,5.38,1.09,10.82,2.44,16.11.98,3.84,2.73,7.29,5.02,10.51,2.88,4.03,7.89,6.28,13.69,3.89,5.93-2.45,11.95-4.69,17.92-7.04.86-.34,1.66-.83,3.06-1.53-11.66-1.89-22.73-2.92-33.33-4.92-.56-.9-.57-1.43-.35-1.97,3.44-8.32,8.54-15.28,16.17-20.31,8.72-5.74,18.22-9.65,28.18-12.56,3.95-1.16,8-1.2,12.05-.99,4.05.21,6.75,2.37,8.09,6.2,1.14,3.26,1.15,6.63.41,9.92-1.3,5.76-6.48,7.16-10.18,6.55-4-.66-7.37-2.51-9.84-5.81-1.08-1.46-2.1-2.96-3.75-3.84-1.86-.6-3.6-.3-5.28.57-6.82,3.53-13.64,7.04-20.44,10.59-1.24.64-2.39,1.44-3.12,2.95.76.87,1.94.92,2.92,1.06,4.96.74,9.96,1.27,14.91,2.05,7.86,1.24,15.82,1.46,23.72,2.23,3.05.3,6.14.1,9.21.19,1.36.04,2.81-.32,4.01.65.7,4.17-1.35,7.51-5.3,8.55-1.34.35-2.73.56-4.11.77-8.21,1.21-15.98,3.91-23.6,7.05-5.67,2.34-11.21,5-16.82,7.5-2.04.91-4.07,1.83-6.15,2.64-5.26,2.04-11.81.09-14.78-4.67-1.56-2.49-3.14-4.94-4.22-7.69-.5-1.28-.9-2.62-2.12-3.89-.69,2.05-1.23,3.9-1.94,5.68-1.77,4.42-4.6,7.82-9,10.01-5.52,2.74-12.68,1.02-16.21-3.71-.49-.66-1.07-1.26-1.63-1.88-.08-.09-.26-.09-.58-.18-1.43,1.09-1.9,2.91-2.73,4.46-.92,1.74-1.93,3.39-3.42,4.71-3.7,3.25-8.66,2.36-10.91-1.26-.66-1.06-1.41-2.05-2.03-2.94-1.21-.28-1.76.42-2.35.99-1.41,1.35-2.74,2.8-4.25,4.03-2.19,1.79-4.62,3.13-7.61,3.02-.67-.03-1.34.22-2.06.35-1.06,1.81-1.07,3.81-1.53,5.67-.61,2.43-1.16,4.89-1.63,7.35-.44,2.29-1.58,4.11-3.19,5.76-12.04,12.38-26.24,20.58-43.57,22.99-6.49.9-12.74.6-18.97-1.54-6.28-2.15-10.3-6.49-12.72-12.45-1.54-3.78-2.3-7.75-2.33-11.84-.02-3.07,0-6.14-.02-9.21,0-.97.07-1.96-.53-2.83-.56-.73-1.43-.81-2.22-1.06-3.02-.98-4.53-3.19-4.77-6.23-.5-6.46,0-12.83,2.2-18.98,1.22-3.42,2.73-6.72,4.5-9.9.33-.58.62-1.27,1.47-1.33.95.66.36,1.49.17,2.2-1.41,5.25-2.88,10.49-3.68,15.89-.36,2.41-.07,4.72.52,7.04.26,1,.79,1.76,1.88,2.3,1.86.07,3.34-.86,4.54-2.32.71-.86,1.3-1.81,2.01-2.67.36-.44.88-.67,1.52-.37.76.88.23,1.85.06,2.76-.95,4.93-1.96,9.84-2.9,14.77-.58,3.04-.67,6.12-.09,9.16,1.58,8.31,7.94,14.27,16.27,16.03,6.94,1.47,13.61.33,20.27-1.26,11.17-2.67,21.19-7.75,30.08-15.01,1.62-1.32,3.23-2.66,4.79-4.06,2.15-1.93,2.94-4.19,2.13-7.14-1.11-4.04-2.14-8.08-3.69-11.99-1.25-3.15-2.15-6.38-.7-9.74.21-.49.58-.91,1-1.56ZM805.2,484.11c3.15,1.81,5.73,3.51,9.03,1.83-.27-1.77-1.48-2.09-2.68-2.39-1.96-.49-3.94-1.28-6.35.55Z"/>
      <path class="cls-1" d="M512.98,504.02c.68,5.38-.65,7.51-5.41,8.87-1.47.42-2.98.76-4.41,1.31-1.16.45-2.28,1.07-3.28,1.81-1.34.98-1.91,2.4-1.5,4.06.38,1.52,1.49,2.3,2.97,2.6,1.5.3,3.01.73,4.53.81,5.58.3,11.16.53,16.67-.79,1.49-.36,3-.61,4.16-1.45.98-1.3.58-2.51.25-3.73-1.6-5.93-2.85-11.94-3.88-17.99-1.03-6.05-1.95-12.1-2.48-18.22-.67-7.77-1.58-15.52-2.23-23.3-.3-3.61-.37-7.24-.87-10.84-.21-1.52-.3-3.04-.7-4.54-.76-2.82-.25-5.54,1.02-8.12.24-.5.58-.96,1.22-1.01,1.99,1.48,3.58,3.84,6.57,9.86,1.1,2.2,2.35,4.38,2.37,6.74-1.72,1.43-2.86-.68-4.28-.01-.63,1.29-.25,2.7-.14,4.06.22,2.64.58,5.26.86,7.9.82,7.76,1.51,15.53,2.46,23.28,1.25,10.25,2.77,20.45,5.64,30.4.23.8.31,1.66,1.19,2.45,1.36.84,3.04.42,4.64.04,2.35-.56,4.71-.53,7.08-.49,1.99.03,3.86.58,5.65,1.38,1.73.78,3.03,2.03,3.66,3.83.87,2.51,1.56,5.07,1.03,7.78-.24,1.23-.33,2.49-.54,3.72-.61,3.49-2.59,5.53-6.03,6.02-4.85.68-9.18-.32-12.42-4.33-.79-.98-1.52-1.99-2.29-2.99-1.83-2.38-4.26-2.99-7.09-2.37-.27.06-.54.14-.79.26-7.5,3.64-15.5,2.98-23.45,2.72-1.24-.04-2.49-.35-3.69-.71-3.24-.98-4.51-2.63-4.72-6.09-.11-1.81-.08-3.63.36-5.41.23-.93.61-1.88.1-2.84-.83-.81-1.59-.12-2.28.2-3.81,1.74-7.63,3.46-11.38,5.32-5.9,2.92-12.03,5.23-18.31,7.15-1.2.37-2.38.78-3.03.99-2.58,1.47-2.91,3.91-4.03,5.76-1.72-.83-1.39-2.61-2.38-3.57-.77-.76-1.77-.74-2.74-.74-2.09,0-4.19.04-6.28.07-10.01.11-16.97-5.47-19.74-14.88-1.58-5.39-2.29-10.91-3.13-16.42-.82-5.37-1.48-10.77-2.2-16.16-.71-5.39-1.35-10.79-2.11-16.17-1.11-7.87-2.16-15.74-3.52-23.57-.57-3.27-1.78-6.45-2.83-9.63-1.38-4.21-1.07-8.23.95-12.14.25-.48.64-.88.92-1.26,1.63.05,1.84,1.35,2.23,2.29,2.05,5.05,3.7,10.23,4.92,15.55,2.24,9.81,3.45,19.76,4.38,29.76,1.01,10.82,2.15,21.63,3.38,32.43.61,5.34,2.52,10.27,5.58,14.73,2.39,3.48,5.6,5.38,9.87,5.28,1.67-.04,3.34-.14,5.01-.29.37-.03.72-.35,1.05-.52.46-1.24-.15-2.25-.5-3.28-.54-1.58-1.25-3.11-1.77-4.7-3.33-10.18,4.68-21.8,15.34-22.11,2.05-.06,4.16.45,6.19.89,13.77,2.99,27.52,6.04,41.28,9.07.96.21,1.9.46,2.91,1.26ZM490.55,510.72c-.25-.66-.8-.82-1.33-1-3.3-1.08-6.58-2.26-9.92-3.2-6.43-1.81-12.92-3.2-19.7-2.98-3.98.13-6.97,1.52-8.8,4.86-.25,1.2-.26,2.2.27,3.06,2,3.3,2.77,7.24,4.93,10.12,2.1.67,3.69.24,5.3-.3,8.56-2.89,17.13-5.75,25.69-8.65,1.29-.44,2.67-.77,3.56-1.92ZM540.22,527.82c1.35,2.32,3.26,2.81,5.14,3.15,1.42.26,2.98.61,4.32-.58q-2.03-2.23-9.46-2.57Z"/>
      <path class="cls-1" d="M141.24,511.98c4.16-4.89,8.64-9.48,13.31-13.89,2.55-2.41,5.36-4.46,8.25-6.42,7.13-4.84,17.81-4.77,25.37,1.54,3.29,2.75,4.46,6.2,3.81,10.43-.8,5.23-3.75,8.93-7.99,11.74-5.15,3.42-10.79,5.84-16.59,7.9-10.94,3.88-22.22,6.48-33.54,8.93-1.91.41-3.82.84-5.72,1.28-2.2.52-4.45.55-6.66.3-4.26-.49-7.56-2.66-10.1-6.08-.64-.87-.79-2.11-1.93-2.6-1.15.22-1.38,1.31-1.98,2.03-.89,1.07-1.64,2.27-2.61,3.26-2.97,3.03-6.59,4.07-10.73,3.16-5.07-1.11-9-3.69-10.96-8.84-1.21.16-1.42,1.24-1.89,1.96-1,1.53-2.16,2.92-3.53,4.12-1.94,1.7-4.18,2.82-6.77,3.02-4.37.34-8.66-.01-12.72-1.83-3.23-1.45-6.07-3.44-8.05-6.45-1.3-1.98-2.53-4.01-3.74-6.05-.78-1.32-1.41-2.74-2.87-3.69-2.08-1.03-4-.13-5.77,1.04-4.67,3.08-8.12,7.2-10.2,12.41-1.24,3.11-2.44,6.24-3.71,9.33-.64,1.55-1.34,3.07-2.13,4.55-1.59,2.97-3.81,5.16-7.4,5.49-2.68-.11-4.7-1.51-6.49-3.38-4.33-4.5-6.65-9.98-7.45-16.06-.82-6.25-.52-12.51.78-18.7.2-.95.3-1.96,1.45-2.29.63.14.99.54,1.05,1.15.18,1.81.12,3.62-.16,5.42-1.11,6.99.38,13.59,3.1,19.97.54,1.26,1.36,2.47,2.27,3.49,2.58,2.88,6.72,2.79,9.12-.24.94-1.18,1.62-2.61,2.19-4.02,2.76-6.73,6.25-13.09,9.91-19.35,2.24-3.83,5.29-6.82,9.13-9.01,3.67-2.1,6.16-1.73,8.77,1.64,1.79,2.31,3.28,4.85,4.85,7.32,3.81,6,9.08,9.27,16.35,9.07,2.68-.07,5.28-.35,7.81-1.27,3.36-1.95,4.81-5.67,7.36-8.21,1.24.3,1.34,1.19,1.66,1.95,3.46,8.18,14.27,10.26,20.47,3.9,1.16-1.19,2.06-2.63,3.07-3.96.58-.76.9-1.76,1.97-2.01.65.15.94.64,1.01,1.2.23,1.86.78,3.56,2.33,4.75,2.11,1.62,4.25,3.23,7.02,3.51,3.38.35,6.72,0,9.9-1.18,3.56-1.34,5.82-3.9,5.92-7.84.15-5.85.31-11.71-.53-17.55-.46-3.17-.7-6.37-1.09-9.55-.74-6.08-1.52-12.17-2.29-18.25-.95-7.6-1.83-15.22-2.89-22.81-.46-3.29-.5-6.68-1.88-9.82-.46-1.04-.56-2.19-.23-3.29.56-1.87,1.17-3.72,1.84-5.55.25-.68.8-1.13,1.63-1.12.74.13,1.13.69,1.45,1.33,2.76,5.51,6.41,15.17,6.73,17.86-1.27,1.57-2.49-.89-3.96.07-.25,2.41.56,4.84.81,7.29.65,6.23,1.57,12.44,2.4,18.65.87,6.49,1.63,13,2.69,19.46.93,5.61.62,11.11-.51,16.62-.28,1.36-.49,2.74-.73,4.11,0,0-.13.12-.13.12l.15-.1ZM185.71,505.55c-5.27-7.65-15.28-10-23.22-5.11-8.25,5.08-15.32,11.56-21.25,19.24-.39.5-1,.97-.73,1.77,14.87-1.74,38.42-10.02,45.2-15.89Z"/>
      <path class="cls-1" d="M356.12,510.94c6.89-7.02,14.15-13.31,21.73-19.23,4.21-3.28,8.98-4.26,14.18-3.35,4.68.82,8.66,2.99,12.12,6.2,2.36,2.19,3.16,4.87,2.57,7.98-.28,1.51-.63,3.01-1.08,4.47-.89,2.88-2.56,5.2-5.06,6.98-5.63,4-11.83,6.82-18.28,9.17-9.6,3.5-19.51,5.82-29.43,8.13-2.44.57-4.91,1.05-7.35,1.65-3.53.86-7.15,1.02-10.42,1.08-1.34,1.11-1.18,2.29-1.14,3.37.1,2.53-.27,5-.69,7.48-.62,3.69-2.07,7.05-4.69,9.65-9.03,8.98-19.16,16.25-31.85,19.13-4.08.93-8.18,1.55-12.41.43-4.86-1.29-8.17-4.12-9.7-8.89-2.32-7.19-2.52-14.51-1.11-21.91.89-4.68,2.39-9.18,4.31-13.53.5-1.12.99-2.33,2.45-2.4.64.45.64.98.47,1.53-.69,2.27-1.33,4.55-2.1,6.8-1.75,5.13-1.83,10.4-1.61,15.73.1,2.27.7,4.39,1.6,6.46,1.67,3.86,4.66,5.77,8.79,6.02,5.65.35,11.15-.45,16.47-2.33,7.59-2.68,14.36-6.77,20.46-12.01,2.21-1.9,4.74-3.51,6.02-7.01-.02-3.21-1.87-6.36-3.46-9.58-.43-.87-1.09-1.62-1.61-2.44-2.44-3.91-1.95-7.89-.69-11.69,1.15-.59,1.75-.28,2.24.27.65.73,1.21,1.54,1.88,2.24,1.19,1.25,2.65,2.13,4.39,2.19,4.18.14,8.36.23,12.5-.69,2.7-.6,4.42-2.16,5.54-4.61,2.11-4.62,2.26-9.44,1.65-14.36-.77-6.22-1.49-12.45-2.27-18.67-.62-4.98-1.28-9.95-1.93-14.93-.72-5.53-1.42-11.06-2.17-16.58-.68-4.97-1.33-9.95-2.15-14.89-.39-2.36-.55-4.71-.4-7.08.14-2.27.89-4.29,2.69-5.89.51.36,1,.51,1.13.82,2.33,5.37,4.62,10.76,6.91,16.14.38.9.68,1.82.61,2.69-1.39,1.94-2.56-.43-3.99.09.16,3.97,1.02,7.9,1.56,11.87,1.03,7.45,2.09,14.9,3.1,22.36.56,4.14,1.25,8.28,1.5,12.45.38,6.25.37,12.52-1.3,18.69ZM400.46,505.46c-1.66-2.09-3.32-3.71-5.46-4.86-6.6-3.56-13.07-3.3-19.48.49-7.84,4.63-13.96,11.06-19.31,18.3-.38.51-1.01.99-.67,1.8,11.23-.19,38.35-10.07,44.92-15.73Z"/>
      <path class="cls-1" d="M334.24,729.32c-2.58-.4-4.06.79-5.63,1.64-2.95,1.59-5.87,3.23-8.82,4.8-2.6,1.39-5.39,2.23-8.28,2.86-7.57,1.66-16-1.97-19.66-9.98-1.17-2.56-1.88-5.27-2.28-8.03-.99-6.89-1.83-13.81-2.74-20.72-1.03-7.87-2.17-15.73-3.06-23.62-.61-5.41-1.58-10.75-2.6-16.09-.76-3.99-2.04-7.82-3.09-11.73-.36-1.34-.73-2.68-1.09-3.96.65-2.89.79-5.83,2.73-8.34,1.84,1.15,2.28,2.84,2.85,4.36,2.43,6.41,4.1,13.03,5.39,19.75,1.5,7.81,2.25,15.72,3.18,23.6.52,4.42.64,8.9,1.08,13.33.52,5.27.99,10.55,1.84,15.77.67,4.14,2.23,8.05,4.62,11.58,2.28,3.36,5.41,5.09,9.5,5.19,5.92.15,11.28-1.58,16.26-4.63.59-.36,1.16-.79,1.38-1.75-3.2-4.64-7.99-4.7-12.79-4.05-.85-.59-.89-1.26-.75-1.97.71-3.55,2.73-6.01,6.03-7.51,2.83-1.29,5.84-1.85,8.83-2.51,8.03-1.77,15.79-.8,23.33,2.36.77.32,1.52.7,2.25,1.1.35.2.63.54,1.01.87.52,3.41-.95,5.94-3.5,7.94-1.65,1.3-3.52,2.24-5.45,3.09-.86.38-1.87.54-2.52,1.35,5,5.11,13.89,7.13,20.09,4.63,1.76-.71,2.97-2.02,3.97-3.81.64-3.46.28-7.07-.11-10.67-.45-4.15-.93-8.3-1.41-12.46-.65-5.68-1.29-11.35-1.95-17.02-.43-3.74-.89-7.47-1.34-11.2-.71-5.95-1.47-11.89-2.12-17.84-.49-4.57-1.54-9.08-1.32-13.72.09-1.82.21-3.6,1.88-5.01,2.03.64,2.54,2.49,3.34,4.02,3.23,6.21,4.53,10.33,4.24,13.19-1.06.56-1.79-.63-2.76-.55-.11.24-.33.49-.3.71.74,6.36,1.5,12.72,2.28,19.08.72,5.95,1.51,11.88,2.19,17.83.49,4.29.66,8.63,1.35,12.88.85,5.28.69,10.57.72,15.86.02,3.26-.78,6.35-1.8,9.41-.49,1.47-1.25,2.79-2.23,4-4.66,5.71-10.53,7.24-17.63,4.5-4.19-1.62-7.94-4.07-11.73-6.43-1.18-.74-2.35-1.49-3.39-2.14ZM339.57,716.28c-4.7-1.69-4.92-1.68-7.39.16.81,1.36,1.87,2.37,3.56,2.3,1.55-.07,2.84-.69,3.82-2.46Z"/>
      <path class="cls-1" d="M135.15,582.96c.44-.97,1.31-1.17,2.07-1.45,6.95-2.52,13.9-5.01,21-7.1,11.18-3.29,21.54-8.41,31.5-14.41,8.5-5.12,16.51-10.93,24.39-16.94,1.76-1.34,3.29-3.01,4.85-4.6.83-.84,1.16-1.89.48-3.23-1.58-1.02-3.5-1.24-5.46-1.3-1.81-.06-3.63,0-5.44-.15-2.97-.24-5.77-.99-8.06-3.05-1.52-1.37-2.41-3-2.49-5.1-.09-2.56.18-5.04,1.36-7.32,1.28-2.48,2.85-4.79,4.76-6.86,1.38-1.5,3-2.48,5.1-2.5,1.8.16,3.05,1.27,4.25,2.46,2.79,2.75,5.39,5.65,7.64,8.86.71,1.02,1.3,2.16,2.72,3.02,3.33.75,6.9.4,10.38-.76,2.23-.75,3.83-2.25,4.16-4.78.23-1.79.43-3.52.26-5.38-.9-9.99-2.34-19.92-3.49-29.88-.96-8.3-1.7-16.63-2.8-24.91-.93-7.04-1.38-14.14-2.89-21.11-.74-3.43-.65-6.94.53-10.33.27-.79.59-1.54,1.71-2.02,2.87,3.26,4.71,7.09,6.27,11.09,1.83,4.72,1.84,4.76,1.53,7.5-1.31.52-1.84-1.16-2.99-1.08-.09.26-.28.52-.25.75.76,6.64,1.54,13.28,2.33,19.92.62,5.26,1.26,10.51,1.9,15.77.42,3.46.91,6.9,1.31,10.36.57,4.84,1.22,9.68,1.59,14.53.39,5.28.47,10.56-.57,15.84-1.53,7.78-5.86,12.77-13.67,14.59-.68.16-1.36.31-2.04.45-.67.15-1.35.29-1.69.36-1.85,1.02-2.19,2.59-2.46,4.07-1.29,7.22-5.66,12.36-11.36,16.44-8.06,5.76-16.38,11.14-24.39,16.96-5.02,3.64-10.59,5.46-16.57,6.5-10.16,1.78-20.29,3.68-30.44,5.51-1.23.22-2.48.34-3.72.41-.54.03-1.12-.15-1.32-1.14ZM205.54,521.98c1.55,1.5,3.36,1.81,5.7,1.14-.63-2.01-1.9-2.81-3.46-3.12-1.12.31-2.06.57-2.24,1.98Z"/>
      <path class="cls-1" d="M243.44,727.39c-1.76,1.52-2.61,3.14-3.56,4.66-3.01,4.78-7.42,7-12.95,7.14-8.37.22-14.88-3.03-19.13-10.42-.9-1.57-1.87-3.11-2.83-4.65-.77-1.23-1.78-2.14-3.68-2.34-4.91,1.85-8.6,5.52-11.22,10.27-1.27,2.31-2.12,4.85-3.15,7.29-.98,2.31-1.93,4.64-2.94,6.93-.74,1.67-1.69,3.22-2.97,4.53-2.2,2.24-4.87,2.72-7.63,1.28-1.74-.91-3.28-2.09-4.46-3.72-3.63-4.98-5.72-10.53-5.94-16.7-.15-4.04-.31-8.1.84-12.06.29-1.01.34-2.22,1.58-2.67,1.06.41.95,1.32.95,2.12.04,3.35,0,6.7.06,10.04.06,3.97,1.16,7.7,2.87,11.26.79,1.65,1.76,3.18,3.52,4.11,1.58.53,3.22.51,4.82.02,1.89-.99,2.92-2.63,3.72-4.44,1.41-3.19,2.86-6.36,4.14-9.6,1.76-4.46,4.23-8.47,7.24-12.18,1.79-2.2,4.05-3.86,6.46-5.26,3.22-1.88,6.09-1.28,8.58,1.58.73.83,1.3,1.81,1.91,2.74,1.15,1.75,2.27,3.52,3.41,5.27,5.16,7.94,17.01,8.87,23.55,4.67,1.55-1,2.76-2.32,3.91-3.74,2.88-3.58,5.78-7.16,8.71-10.7,1.75-2.11,3.95-3.49,6.61-3.92,2.87.21,4.77,1.76,6.07,4.06,3.21,5.68,3.5,11.66,1.51,17.78-1.15,3.53-4.08,4.72-7.28,3.49-1.96-.76-3.84-1.65-5.64-2.73-2.26-1.35-4.55-2.65-7.07-4.11ZM256.46,723.42c.45-2.16-.13-3.47-1.74-4.09-1.34-.52-2.8-.74-4.21.72,1.88,1.39,3.51,2.6,5.95,3.37Z"/>
      <path class="cls-1" d="M541.13,727.65c-1,1.43-1.83,2.54-2.59,3.7-1.16,1.77-2.57,3.32-4.18,4.66-4.42,3.68-9.29,4.2-14.45,1.78-3.36-1.58-6.04-3.97-7.97-7.18-1.81-3.02-3.27-6.19-3.79-9.68-.92-6.06-1.74-12.13-2.55-18.21-.75-5.66-1.43-11.33-2.16-16.99-.64-4.97-1.42-9.93-1.94-14.92-.6-5.71-1.74-11.28-3.37-16.78-.79-2.67-1.47-5.38-2.1-8.1-.72-3.15.17-6.07,1.62-8.84.16-.31.64-.45.96-.66,1.37.63,1.64,1.94,2.08,3.08,2.7,7.05,4.54,14.35,5.97,21.75,1.42,7.39,2.25,14.88,3.13,22.35.47,4.01.65,8.05,1.03,12.08.59,6.24,1.09,12.5,1.93,18.7.47,3.46,1.88,6.68,3.99,9.57,5.34,7.34,14.96,7.8,20.83.88,2.97-3.51,5.82-7.13,8.72-10.7,2.07-2.55,4.43-4.64,7.79-5.21,2.67.1,4.4,1.55,5.69,3.72,3.43,5.77,3.96,11.81,1.64,18.08-.7,1.9-1.89,3.41-4.31,4.04-5.82-.46-10.17-5.02-15.95-7.12ZM554.79,723.28c.45-2.07-.28-3.22-1.61-3.86-1.35-.65-2.83-.76-4.37.29,1.4,2.39,3.31,3.37,5.98,3.56Z"/>
      <path class="cls-1" d="M422.98,744.5c2.17-1.14,3.24-3.11,4.08-5.19,2.43-5.96,5.67-11.5,8.63-17.18,2.24-4.28,5.64-7.21,9.76-9.44,2.79-1.5,5.05-1.12,7.12,1.27,1.09,1.26,1.94,2.72,2.89,4.1,1.1,1.61,2.11,3.29,3.28,4.84,4.41,5.82,10.34,7.8,17.39,6.49,4.46-.83,8.35-3.06,12.16-5.41.45-.27.73-.8,1.13-1.26-.34-2.11-1.74-3.51-3-4.95-4.14-4.75-7.54-10.02-10.79-15.4-1.75-2.89-2.37-5.92-1.77-9.21.1-.52.4-1.01.53-1.35.66-.44,1.22-.71,1.74-.42,3.26,1.83,6.18,4.11,8.85,6.49-.28,1.56-2.03,1.33-2.33,2.95.4,1.17,1.46,2.29,2.34,3.51,1.64,2.26,3.42,4.42,4.96,6.73,5.09,7.62,4.3,14.61-2.22,21.16-5.54,5.56-12.42,7.89-20.26,6.82-5.9-.8-10.22-4.21-13.61-8.91-1.06-1.46-1.84-3.12-2.8-4.66-.96-1.52-1.81-3.19-3.97-3.72-3.69.71-6.17,3.43-8.42,6.25-2.7,3.38-4.95,7.08-6.54,11.15-1.06,2.73-2.22,5.42-3.37,8.11-1.35,3.18-3.66,5.2-7.17,5.8-3.41-.45-5.78-2.51-7.78-5.13-3.22-4.23-4.92-9.08-5.35-14.31-.46-5.57-.18-11.15.87-16.66.13-.71.38-1.34,1.29-1.58.26.19.76.37.85.68.23.79.41,1.63.38,2.45-.16,5.32.8,10.56,1.08,15.85.21,4.03,1.79,7.56,4.93,9.99,1.87.7,3.5.7,5.1.17Z"/>
      <path class="cls-1" d="M618.49,723.37c-1.22-.44-1.48-1.44-1.86-2.31-2.61-5.95-6.23-11.21-11-15.63-8.38-7.79-16.64-15.71-24.71-23.82-5.73-5.76-10.57-12.23-15.44-18.69-1.17-1.56-2.29-3.13-3.64-4.56-2.45-2.6-2.5-6.29-.17-9.75,3.79,2.5,7.59,5.01,11.26,7.43,2.98-1.61,3.08-1.71,5.25-5.28-1.33-1.91-2.83-3.97-2.41-7.33,1.31-2.54,3.41-5.28,6.07-7.58,1.66-1.44,2.51-1.54,5.64-1.13.81,2.05,2.1,4.14-.09,6.16-1.75.38-2.66-1.19-4.34-1.27-1.47.18-2.41,1.27-3.06,2.85.75,2.11,2.62,2.69,4.35,3.3,2.02.02,3.65-.78,5.32-1.49,1.64-.7,3.07-1.94,4.8-2.07.9.59.83,1.24.6,1.94-.72,2.11-2.26,3.47-4.11,4.56-3.36,1.99-6.73,3.97-10.07,5.99-1.19.72-2.37,1.49-3.45,2.36-1.65,1.33-3.36,2.48-5.41,2.69-.4,1.18.24,1.82.77,2.42,1.49,1.66,3.02,3.3,4.59,4.87,10.67,10.65,21.38,21.26,32.01,31.94,4.59,4.61,8.17,9.87,9.82,16.29.53,2.07.69,4.12.43,6.22-.08.69-.25,1.38-1.15,1.91Z"/>
      <path class="cls-1" d="M619.69,656.06c-.19,3.1.55,6.1,1,9.12,1.54,10.19,3.28,20.35,4.69,30.55.89,6.47,2.17,12.91,2.07,19.51-.06,4.24-.74,8.31-2.04,12.31-1.21,3.74-2.98,7.22-4.92,10.61-2.27,3.96-5.38,7.1-9.56,9.06-2.52,1.18-5.04,2.38-7.62,3.42-3.74,1.5-7.54,2.87-11.05,4.19-.95-.19-1.25-.58-1.28-1.6,2.39-1.73,4.84-3.8,7.56-5.42,8.14-4.87,14.57-11.63,21-18.42,1.66-1.75,2.85-3.77,3.55-6.08.37-1.22.52-2.41.32-3.7-1.49-9.49-2.96-18.98-4.38-28.49-1.55-10.33-3.01-20.67-4.59-30.99-.5-3.3-1.15-6.59-1.94-9.83-.82-3.33-.62-6.64-.2-9.96.1-.82.43-1.61,1.11-2.16h1.21c1.5,2.05,8.25,15.3,8.67,17.15.08.34-.19.76-.28,1.08-1.26.64-2.23-.34-3.31-.34l-.16-.2.19.17Z"/>
      <path class="cls-1" d="M257.49,427.23c.55-.16.94-.27,1.4-.41,1.75.97,2.08,2.89,2.88,4.45.89,1.73,1.56,3.58,2.37,5.35.75,1.65,1.59,3.26,2.33,4.91.72,1.6,1.85,3.11,1.52,4.9-1.41,1.23-2.47-.62-3.67-.08-.17.23-.46.43-.47.65-.05,1.11-.16,2.24-.02,3.33,1.27,10.5,2.63,20.99,3.86,31.5,1,8.57,1.71,17.18,2.85,25.73.69,5.15.77,10.27.68,15.43-.06,3.53-.95,6.89-2.26,10.15-.3.74-.53,1.64-1.64,1.57-.8-.37-.8-1.11-.76-1.79.55-9.52-.88-18.89-2.1-28.27-1.09-8.42-2.08-16.85-2.78-25.32-.54-6.52-1.42-13-2.14-19.5-.38-3.46-.85-6.92-1.04-10.39-.17-3.08-.76-6.07-1.41-9.07-.74-3.47-.59-9.25.39-13.14Z"/>
      <path class="cls-1" d="M578.39,535.38c-1.07-1.99-.76-3.55-.74-5.06.11-9.36-.99-18.61-2.22-27.86-1.04-7.86-2.01-15.74-2.86-23.62-.93-8.72-1.55-17.47-2.59-26.17-.52-4.41-.7-8.87-1.96-13.2-.91-3.11-.53-6.37-.1-9.55.12-.92.32-1.96,1.44-2.39.99-.21,1.54.41,1.99,1.15.36.59.68,1.22.97,1.85,1.73,3.8,3.49,7.6,5.15,11.43.59,1.35,1.38,2.76.71,4.15-1.33,1.04-2.19-.66-3.38-.1.22,2.87.36,5.77.67,8.66.56,5.26,1.22,10.51,1.85,15.76.76,6.35,1.54,12.71,2.31,19.06.71,5.8,1.55,11.59,2.09,17.41.72,7.78.86,15.59-.52,23.33-.33,1.84-.81,3.73-2.81,5.17Z"/>
      <path class="cls-1" d="M393.57,739.07c-.33-3.15-.8-6.28-.96-9.43-.38-7.24-1.39-14.41-2.32-21.6-.99-7.6-2-15.19-2.84-22.8-.95-8.58-1.68-17.19-2.59-25.77-.22-2.07-.69-4.12-1.15-6.16-.77-3.46-.6-6.94-.3-10.41.07-.8.44-1.6.8-2.34.25-.53.8-.73,1.44-.62.58.14.92.59,1.15,1.1,2.16,4.84,4.3,9.68,6.43,14.53.23.52.25,1.08-.09,1.65-.82,1.12-2.03-.03-3.11.34-.04,5.1.89,10.03,1.37,15,.59,6.1,1.43,12.17,2.15,18.25.75,6.36,1.64,12.71,2.19,19.09.44,5.13,1.34,10.23,1.21,15.41-.1,3.92-.81,7.75-1.5,11.59-.16.9-.29,1.99-1.88,2.18Z"/>
      <path class="cls-1" d="M649.01,640.62c.66.03.97.52,1.19,1.02,2.21,4.97,4.42,9.94,6.58,14.93.14.32-.05.78-.08,1.08-1.01.97-1.94-.16-2.86.11-.16.2-.47.4-.47.6,0,1.39-.04,2.8.1,4.18.77,7.21,1.56,14.41,2.41,21.61.64,5.4,1.51,10.77,2.06,16.18.98,9.7,2.6,19.36,2.12,29.18-.16,3.27-1.03,6.32-2.19,9.32-.2.52-.5,1-1.1,1.16-.61-.11-1.03-.48-1.07-1.09-.06-1.11-.09-2.23-.04-3.34.28-6.72-.45-13.36-1.46-20-.54-3.58-.79-7.2-1.16-10.81-.34-3.33-.64-6.66-1-9.99-.79-7.34-1.56-14.69-2.4-22.03-.74-6.51-1.53-13.01-2.37-19.5-.21-1.65-.79-3.25-1.08-4.9-.52-2.98.4-5.41,2.81-7.71Z"/>
      <path class="cls-1" d="M160.67,459.83c1.85-4.96,2.61-9.88,5.74-13.57,2.15-.96,4.08-1.06,5.49.76,1.61,2.08,1.61,4.34.13,6.44-1.8.71-2.93-1.36-3.74-1.02-2.02.75-2.34,1.84-2.63,2.91-.84,3.09-1.61,6.2-2.47,9.29-.56,2.01-1.19,4-1.84,5.99-.21.65-.55,1.28-1.65,1.41-2.75-4.3-2.61-10.17-6.67-14.02-2.75-.47-5.72-.64-6.61-4.36.17-.57.32-1.4.67-2.14,1.64-3.41,4.37-4.09,7.51-1.88,2.11,1.49,3.57,3.48,4.41,5.94.43,1.25.55,2.64,1.66,4.23Z"/>
      <path class="cls-1" d="M375.36,459.54c1.92-4.87,2.36-9.93,5.85-13.49,2.37-.75,4.38-.68,5.62,1.57,1.14,2.06,1.42,4.17-.16,5.95-1.94.58-3.14-1.13-4.85-.7-.96.32-1.34,1.24-1.59,2.18-.62,2.29-1.17,4.59-1.76,6.89-.66,2.56-1.28,5.14-2.05,7.68-.3,1.01-.58,2.2-2.12,2.56-3-4.25-2.39-10.35-6.78-14.12-2.32-.52-5.09-.46-6.21-3.71-.33-1.31.16-2.73,1.1-4.02.86-1.18,1.98-1.96,4.18-1.94,3.98,2.21,6.34,6.43,8.76,11.15Z"/>
      <path class="cls-1" d="M14.75,469.6c-3.85,2.46-6.5,6.13-10,8.77.3,1.13,1.15.86,1.74.87,3.06.05,6.12.1,9.13-.61.76-.18,1.61-.03,2.33-.03.44,1-.1,1.46-.67,1.84-4.11,2.78-8.69,3.56-13.54,3.07-.85-.09-1.57-.52-2.2-1.41-.99-1.87-.21-3.62,1.01-5.23,1.26-1.67,2.83-3.06,4.51-4.31,1.22-.91,2.55-1.71,3.19-3.17.22-1.45-.86-2.32-1.43-3.4-1.48-2.81-1.31-5.66-.03-8.44,1.07-2.33,3.18-3.18,5.55-2.21,3.34,1.37,5.85,3.78,7.4,7.02,1.44,3-.09,5.99-3.3,6.79-1.07.27-2.2.28-3.69.45ZM12.55,464.31c.58-.42.92-.93.46-1.9-.73-.4-1.51-.81-1.9.63.22.72.61,1.21,1.44,1.27ZM18.16,464.54c0-.85-.44-1.25-1.27-1.27q-.07,1.33,1.27,1.27Z"/>
      <path class="cls-1" d="M153.44,553.46c1.48-.92,3.06-.6,4.56-.56,4.02.1,6.61-1.83,8.02-5.46.61-1.56,1.14-3.15,1.58-4.76.37-1.34.62-2.74-.27-3.78-1.24-1.15-2.63-.2-3.75-.72-.95-1.16-.35-2.17.24-3.11.69-1.1,1.67-1.88,3-2.07,1.76-.24,3.51,1.13,3.8,3.12.26,1.8.15,3.62-.29,5.4-.23.93-.56,1.85-.23,3.15,2.91-.9,5.85-2.08,8.62.29.84,2.72.12,4.93-2,6.75-5.27,4.52-11.31,6.49-18.22,5.43-1.51-.23-3.01-.66-4.27-1.61-.54-.41-1.12-.87-.8-2.06ZM169.71,550.49c1.23-.29,2.5-.49,3.87-1.88-2.14-.09-3.13.66-3.85,1.9l-.15.13.14-.15Z"/>
      <path class="cls-1" d="M381.73,538.81c-1.32-.99-2.7-.33-3.73-.74-.89-1.1-.4-1.97.1-2.81.67-1.12,1.65-1.88,2.94-2.17,1.89-.43,3.67.82,4.38,2.98.37,1.12.2,2.18-.01,3.29-.34,1.73-.61,3.46-.96,5.43,2.17-.26,3.55-1.75,5.39-1.81,1.52-.02,2.71.62,3.38,1.99.65,1.32.54,2.73,0,4.05-.58,1.43-1.45,2.71-2.66,3.68-5.29,4.24-14.77,6.5-22.35,2.01-.33-.19-.53-.59-.77-.87.19-1.05,1-.92,1.63-.94,1.53-.06,3.06-.02,4.59-.05,2.07-.03,3.84-.86,5.11-2.44,2.32-2.9,3.63-6.22,3.62-9.99,0-.27-.07-.56-.17-.81-.1-.25-.28-.47-.49-.81ZM383.6,550.87c1.37-.72,3.16-.67,4.72-2.75-2.51.32-3.93.97-4.72,2.75Z"/>
      <path class="cls-1" d="M427.33,664.05c-1.86,1.12-3.73,1.08-5.64,1.6-1.83,1.06-3.12,2.92-4.71,4.46-1.5,1.46-3.25,2.48-5.3,3.11.76,1.53,1.84,1.64,2.97,1.52,2.35-.25,4.69-.58,7.03-.84.96-.11,1.93-.17,2.9-.18.22,0,.44.26.66.41-1.71,2.14-3.66,3.14-7.75,4.06-2.61.59-5.2,1.06-7.68-.75-1.13-2.5-.38-4.53,1.62-6.24,1.58-1.36,3.22-2.65,4.78-4.03.72-.63,1.55-1.21,1.86-2.48-2.02-3.52-3.92-7.27-1-11.33,1.1-.9,2.28-1.19,3.71-1.13,2.04.69,3.84,2,5.45,3.54,2.66,2.54,2.9,4.57,1.1,8.29ZM418.46,659.15q1.33.88,1.98-.54c-.34-.16-.67-.45-1.01-.46-.58,0-.95.36-.97.99ZM423.55,660.63c.57.51,1.16.6,1.78-.01-.11-.72-.49-1.19-1.25-1.32-.58.28-.72.74-.54,1.34Z"/>
      <path class="cls-1" d="M181.22,688.14c-4.76,2.26-8.93,3.6-13.11,4.52-1.73-.32-3.12-.87-3.83-2.45-.31-1.89.78-3.2,1.92-4.42,1.33-1.42,2.78-2.73,4.16-4.11.78-.78,1.79-1.36,2.18-2.62-.31-2.02-2.57-3.26-2.46-6.58.35-1.35.27-3.95,2.09-5.91,2.22-1.25,4.11-.25,5.97.71,2.88,1.5,4.66,3.89,5.47,6.96-.08,1.65-.36,3.12-1.75,4.06-.3.14-.55.35-.8.35-3.48,0-6.14,1.37-8.05,4.36-.99,1.56-2.69,2.38-4.23,3.34-.67.42-1.61.55-1.79,1.84,4.44,1.63,8.93-1.02,14.22-.04ZM174.49,673.9c1.04-.86.87-1.55-.21-2.18-.85.37-1.32.76-1.23,1.53.3.53.74.75,1.44.66ZM179.86,675c-.05-.97-.45-1.37-1.42-1.42-.16,1.18.27,1.55,1.42,1.42Z"/>
      <path class="cls-1" d="M638.59,500.33c1.67.52,2.51,1.43,2.82,2.72.36,1.49.59,3.03-.56,4.26-1.59.87-2.69-.75-4.31-.54-.84.23-1.32,1.08-1.59,2.04-.6,2.15-1.13,4.32-1.71,6.47-.58,2.15-1.14,4.32-1.81,6.44-.29.9-.68,1.86-2.11,2.18-2.68-3.57-2.29-8.79-5.78-12.04-2.18-.97-5.28-.44-6.08-3.92.24-1.94.97-3.81,2.76-4.95,1.71-.56,2.9.06,3.96,1.09,2.7,2.62,5.12,5.43,6.06,9.93.75-2.54,1.29-4.4,1.84-6.25.48-1.61,1.08-3.18,2.04-4.57,1.07-1.55,2.43-2.69,4.47-2.86Z"/>
      <path class="cls-1" d="M765.47,450.28c-1.57-.74-1.77-2.06-2.2-3.17-.8-2.08-1.51-4.19-2.23-6.3-.72-2.12-1.94-3.68-4.31-4.02-1.94-.28-3.51-1.14-3.87-3.22-.34-1.99.67-3.48,2.22-4.62.33-.24.75-.35,1.46-.67,5.15,1.08,6.39,6.16,9.31,10,1.03-1.75,1.39-3.62,1.9-5.42.38-1.35.76-2.68,1.57-3.84,1.09-1.55,2.49-2.56,4.48-2.64,1.96,1.29,2.57,3.24,3.1,4.96-.17,1.06-.53,1.6-1.28,1.83-1.34.29-2.28-.98-3.75-.91-1.19.91-1.66,2.39-2.08,3.82-.66,2.26-1.16,4.58-1.74,6.87-.64,2.51-1.09,5.09-2.59,7.33Z"/>
      <path class="cls-1" d="M328.64,761.11c4.51,1.34,9.29-.21,13.86.65.06.43.23.82.11.93-3.97,4.08-11,5.19-16.18,2.53-1.59-2.09-1.2-4.42-.5-6.71.73-2.39,1.63-4.73,2.41-6.97-.41-1.86-2.46-2.51-2.6-4.38,1.04-3.96,3.79-7.44,7.71-9.7.93.01,1.56.49,1.96,1.3.34,1.07-.12,1.89-.51,2.31-1.37,1.29-2.79.37-3.46.73-1.28.77-1.5,1.5-1.2,2.53,1.61,1.44,3.4,1.4,5.33.49,1.09-.51,1.87-1.77,3.29-1.41.54.44.6.99.34,1.51-.81,1.64-1.97,3.01-3.27,4.3-1.98,1.96-3.99,3.89-5.83,5.98-1.38,1.57-2.53,3.37-1.48,5.9Z"/>
      <path class="cls-1" d="M540.68,445.88c4.96-.28,7.58,1.5,9.34,6.17-.45,2.53-1.95,4.12-4.41,5.01-2.07.76-4.18,1.55-5.66,2.96-.81,1.75-.45,3.24-.14,4.75.99,4.91,1.97,9.82,2.51,14.81.25,2.3-.15,4.36-.8,6.44-1.12-.13-1.31-.81-1.4-1.49-.97-6.89-1.97-13.77-3.4-20.59-.11-.54-.1-1.11-.13-1.66-.24-4.66.08-5.51,3.41-8.89.22-1.12-1.15-1.05-1.61-2.61-.29-1.47.36-3.3,2.3-4.89Z"/>
      <path class="cls-1" d="M488.36,537.65c-2.71-1.16-5.41-.6-7.51-2.07.61-2.8,1.12-3.36,3.25-3.66,2.54-.36,5.08.21,7.96,1.8.9,1.91.07,3.52-1.02,5.01-1.56,2.13-3.2,4.2-5.09,6.06-1.58,1.56-2.96,3.29-3.41,5.36.48,1.78,1.79,1.95,3.03,1.99,3.47.12,6.95.17,10.39-.49,1.06-.2,2.14-.71,3.17.08.18.84-.35,1.33-.89,1.76-4.59,3.58-9.86,4.31-15.4,3.41-2.46-.4-3.4-1.96-3.2-4.58.23-3.02,1.61-5.6,3.36-7.97,1.63-2.22,3.44-4.31,5.36-6.7Z"/>
      <path class="cls-1" d="M711.52,491.61c.43,1.37-.17,2.21-.68,3.01-1.19,1.89-2.79,2.67-4.53,2.24-1.95-.49-3.09-1.84-3.55-3.73-.37-1.51-.21-3.04.22-4.54.72-2.56,1.65-5.03,2.8-7.42,1.22-2.54,1.94-5.19,1.93-8.05-.01-2.64-.79-4.89-2.59-6.84-1.88-2.04-3.64-4.18-5.35-6.15-.02-1.94.87-2.8,2.89-3.06,4.82,2.46,7.83,6.48,8.43,12.2.27,2.52-.02,5.02-.93,7.41-1.14,2.99-2.35,5.96-3.46,8.97-.57,1.54-1.48,3.02-1.1,4.74,1.52,2.49,3.9.57,5.93,1.23Z"/>
      <path class="cls-1" d="M295.54,474.44c.41-1.81,1.1-2.93,2.95-3.57,4.9,2.2,7.79,6.23,8.69,11.59.58,3.45.14,6.93-1.29,10.23-1.16,2.68-2.22,5.41-3.22,8.15-.58,1.58-.99,3.23.29,4.5,1.52,1.01,2.92-.16,4.24.26.98.6.8,1.41.39,2.19-1.22,2.29-3.2,2.91-5.71,2.48-2.57-1.54-3.37-3.8-2.72-6.73.57-2.6,1.28-5.14,2.51-7.5,1.37-2.62,2.31-5.36,2.56-8.41-.25-2.74-1-5.44-2.92-7.58-1.75-1.96-3.75-3.68-5.75-5.62Z"/>
      <path class="cls-1" d="M596.52,451.25c.17-1.74,1-2.6,2.33-3.28,2.35,0,4.02,1.42,5.45,3.19,3.9,4.82,4.8,10.27,3.07,16.13-.67,2.26-1.7,4.42-2.55,6.63-.5,1.3-1.04,2.59-1.42,3.93-.38,1.35-.56,2.74.29,3.86,1.49,1.49,3.41.1,4.86,1.02-.21,3.16-.58,3.56-4.52,4.83-1.45-.19-2.62-.83-3.53-2.5-.78-4.06,0-8.22,1.83-12.24.81-1.77,1.68-3.49,2.28-5.37,1.02-3.2.38-6.06-1.27-8.79-1.01-1.67-2.15-3.26-3.79-4.41-1.14-.8-2.2-1.7-3.04-3Z"/>
      <path class="cls-1" d="M236.12,678.47c-1.59,1.56-1.62,3.11-1.32,4.88.9,5.21,1.63,10.45,2.47,15.68.25,1.53.38,3.04.12,4.57-.1.56-.37,1.04-1.02,1.2-.96-.55-1.08-1.56-1.27-2.5-1.04-4.91-2.02-9.82-3.09-14.72-.39-1.79-.42-3.59-.46-5.4-.07-2.92,1.24-5.09,3.61-6.66,1.37-.91,2.81-1.71,4.12-2.5-.03-.94-.69-.99-1.13-1.26-.48-.3-.9-.64-1.06-1.36.33-1.77,1.81-2.14,3.35-2.47,4.08.56,6.46,2.84,7.3,6.48-.64,2.02-1.99,2.38-3.41,2.53-1.25.14-2.5.16-3.76.22-1.56.08-3.01.56-4.44,1.32Z"/>
      <path class="cls-1" d="M715.73,545.58c.87.33,1.64.62,2.43.92,1.44-.37.87-2.33,2.02-2.74.64-.25,1.06-.03,1.22.34,1.37,3.12.53,5.74-2.59,6.69-3.68,1.13-7.3,2.69-11.34,2.41-4.09-.29-7.62,1.22-10.76,3.75-2.82,2.26-5.62,4.54-8.47,6.76-1.18.92-2.47,1.69-3.68,2.51-.74-.84-.2-1.24.15-1.6,4.42-4.43,8.81-8.88,13.3-13.25,2.72-2.65,5.85-4.21,9.82-3.01,2,.61,3.85-.04,5.57-1.07.82-.49,1.55-1.13,2.33-1.72Z"/>
      <path class="cls-1" d="M512.99,566.32c5.39-2.57,10.48-5.13,15.68-7.44,4.48-1.98,8.08-4.8,10.65-9.02,2.16-3.54,2.65-3.82,6.29-5.23,2.23.78,2.79,2.8,3.39,4.77-.2,1.79-.85,3.25-2.24,4.25-2.25.6-3.7-1.14-5.71-1.77-2.62,3.79-5.28,7.52-9.35,9.91-2.41,1.41-4.86,2.78-7.53,3.6-3.06.94-6.21,1.56-9.4,1.9-.54.06-1.1.01-1.79-.99Z"/>
      <path class="cls-1" d="M798.63,561.05c-2.84,4.29-6.05,7.9-10.38,10.41-4.55,2.64-9.57,3.78-14.61,4.88-.79.17-1.64.42-2.34-.3.01-1.08.91-1.31,1.62-1.66,2.99-1.5,5.9-3.22,9.02-4.4,7.45-2.82,13.18-7.66,17.62-14.16.95-1.38,1.88-2.83,3.78-2.76,1.18.24,1.83.99,2.07,1.97.5,1.99,1.38,3.97.62,6.11-2.33,2.27-4.67.93-7.42-.07Z"/>
      <path class="cls-1" d="M541.06,698.05c-4.1-1.76-4.81-2.94-3.93-6.75.5-2.16,1.22-4.28,1.91-6.39.56-1.72,1.21-3.41,1.85-5.1,1.45-3.87.84-7.38-1.87-10.51-.91-1.05-1.85-2.08-2.78-3.11-.74-.82-1.65-1.51-1.97-2.77-.07-1.2.62-1.95,1.71-2.33,1.31-.26,2.27.3,3.13,1.04,4.72,4.06,6.78,9.12,5.14,15.25-.82,3.08-2.14,6.02-3.21,9.04-.66,1.84-1.29,3.69-.5,5.6,1.03,1.41,3.13.43,4.19,2.22-.05,2.09-1.48,3.14-3.66,3.79Z"/>
      <path class="cls-1" d="M489.07,423.77c-.4,1.3-1.71,1.7-2.73,2.28-5.08,2.91-10.37,5.39-15.8,7.59-6.71,2.72-13.37,5.55-20.06,8.31-.87.36-1.71.97-2.75.55-.42-.88.25-1.29.79-1.63,1.98-1.29,3.95-2.63,6.02-3.76,8.92-4.9,18.13-9.19,27.78-12.46,1.71-.58,3.48-.98,5.24-1.43.53-.13,1.09-.11,1.52.55Z"/>
      <path class="cls-1" d="M220.47,422.42c.9.31,1.37.57,1.53,1.39-.69,1.53-2.28,2.17-3.77,2.83-4.58,2.03-9.17,4.01-13.78,5.97-7.16,3.05-14.34,6.08-21.51,9.1-.74.31-1.49.74-2.25.42-.25-.61-.09-1.02.23-1.26,3.08-2.38,6.08-4.88,9.73-6.38,9.39-3.86,18.77-7.72,28.16-11.58.51-.21,1.06-.32,1.66-.5Z"/>
      <path class="cls-1" d="M262.64,742.44c1.6-.27,2.52.3,3.31,1.14.69.74,1.05,1.63,1.1,2.64.05,1.26-.06,2.5-.66,3.65-.49.94-1.26,1.44-2.13,1.57-1.77-.07-2.79-1.56-4.62-1.76-1.44,1.83-2.83,3.91-4.55,5.66-1.74,1.77-3.8,3.25-6.04,4.41-2.11,1.1-4.26,2.09-6.58,2.6-2.39.53-4.76,1.59-7.33.82-.23-1.46.95-1.58,1.73-1.95,4.01-1.93,8.02-3.85,12.07-5.7,3.92-1.78,6.94-4.52,9.24-8.15,1.25-1.98,2.51-4.02,4.46-4.94Z"/>
      <path class="cls-1" d="M772.25,470.04c3.52-2.5,6.67-4.7,10.14-6.43,6.5-3.24,13.29-5.79,19.99-8.56,2.32-.96,4.66-1.86,6.99-2.8,1.29-.52,2.56-1.11,3.93-1.02,1.07.73.75,1.46.14,2.15-.86.96-2.03,1.47-3.18,1.96-4.73,2.05-9.46,4.1-14.21,6.12-6.67,2.83-13.36,5.64-20.05,8.42-.97.41-1.93,1.21-3.74.15Z"/>
      <path class="cls-1" d="M308.18,653.52c3.17-3.24,6.66-5.41,10.52-7.02,7.31-3.04,14.64-6.05,21.95-9.07,1.16-.48,2.3-.99,3.47-1.41.63-.23,1.31-.53,2.08.05-.01,1.42-1.21,2.02-2.15,2.71-3.03,2.25-6.44,3.85-9.84,5.42-7.58,3.49-15.37,6.45-23.19,9.34-.73.27-1.52.77-2.85-.02Z"/>
      <path class="cls-1" d="M560.83,742.68c2.82.52,3.12.81,3.74,3.54.64,2.85.39,3.5-2,5.18-1.9.13-3.26-1.49-5.42-1.67-3.08,6.07-8.55,9.5-14.73,12.03-3.17,1.3-5.72,1.65-8.93,1.28-.41-.9.25-1.25.86-1.53,2.79-1.28,5.6-2.5,8.39-3.79,6.45-2.98,11.87-7.24,16.06-13,.57-.78,1.05-1.66,2.03-2.04Z"/>
      <path class="cls-1" d="M440.37,653.97c-.25-1.02.54-1.53,1.15-2,.87-.68,1.82-1.3,2.83-1.76,9.52-4.33,19.04-8.65,28.59-12.91,1.86-.83,3.76-1.7,5.69-1.72.81,1.02.48,1.63-.11,2.07-1.91,1.41-3.89,2.73-6.09,3.65-10.03,4.2-20.07,8.39-30.11,12.56-.61.25-1.25.71-1.94.11Z"/>
      <path class="cls-1" d="M796.56,530.25c2.94.82,5.39,2.16,7.69,3.68,2.41,1.59,3.08,4.44,1.88,7.03-.58,1.25-1.3,2.45-2.58,3.4-3.04-.62-5.63-2.19-8.06-4.04-1.18-.9-1.61-2.24-1.57-3.71.04-1.52,1.06-4.03,2.65-6.36Z"/>
      <path class="cls-1" d="M101.51,483.67c3.08.74,5.71,2.22,8.18,3.98,1.29.91,1.95,2.3,2.23,4.03-.34,2.26-1.22,4.35-3.3,6-3.23-.5-5.77-2.41-8.26-4.34-.91-.71-1.24-1.85-1.13-3,.23-2.35.75-4.61,2.27-6.66Z"/>
      <path class="cls-1" d="M28.61,498.37c-3.14-1.73-6.14-3.43-8.59-5.72-1.08-3.73.46-6.4,2.45-8.94,5.1,1.87,8.19,4.42,9.84,8.13-.51,2.46-1,5.03-3.7,6.53Z"/>
      <path class="cls-1" d="M37.49,481.81c2.65.58,4.99,2.04,7.15,3.79,1.3,1.05,1.76,2.58,1.25,4.15-.64,1.96-1.46,3.89-3.35,5.27-3.22-.99-6.22-2.28-8.29-4.84-.47-3.83.17-5.49,3.24-8.36Z"/>
      <path class="cls-1" d="M230.4,655.75c-.35-1.62.16-2.88.95-4.21,1.82-.96,3.44-.45,4.81.97.76.79,1.34,1.77,1.93,2.7.74,1.17,1.29,2.46,2.38,3.36.99-.03.97-.81,1.13-1.44.87-3.45,2.56-6.39,5.1-8.53,1.22-.23,1.97-.05,2.31.7.3.77.04,1.25-.29,1.71-.87,1.19-2.67.89-3.51,2.18-2.07,4-1.58,8.8-3.48,13.28-3.39-2.28-3.96-5.97-6.44-8.25-1.49-.81-3.58-.55-4.88-2.46Z"/>
      <path class="cls-1" d="M85.37,560.04c.37-2.41.71-4.74,3.3-6.17,3.68.31,6.75,1.63,8.16,5.47-.48,2.89-1.15,5.51-3.32,7.73-3.49-1.61-6.98-2.93-8.15-7.04Z"/>
      <path class="cls-1" d="M469.87,681.99c-3.25-1.7-7.11-2.44-8.46-6.61.35-2.24.9-4.34,2.06-6.38,3.25.26,5.87,1.67,8.23,3.62,1.42,1.17,1.77,2.78,1.39,4.51-.4,1.77-1.11,3.4-3.22,4.86Z"/>
      <path class="cls-1" d="M435.17,705.49c-4.48-.98-7.16-2.86-8.96-6.22.63-3.39.78-3.71,3.13-6.82,2.63.87,4.89,2.46,6.88,4.38,1.35,1.31,1.87,3.09,1.66,5-.17,1.63-.82,2.94-2.71,3.66Z"/>
      <path class="cls-1" d="M461.07,468.67c3.2.43,5.97,1.13,8.18,3.27,1.43,3.29-.34,5.92-1.37,8.72-3.1.87-5.41-.41-7.5-2.04-1.4-1.1-1.78-2.81-1.35-4.56.42-1.74.84-3.5,2.04-5.39Z"/>
      <path class="cls-1" d="M189.98,705.62c-3.61-.87-6.82-2.54-9.2-5.5.17-3.03,1.06-5.42,3.11-7.57,2.97.97,5.42,2.7,7.56,4.89,1.04,1.06,1.16,2.49,1.07,3.92-.1,1.57-.4,3.05-2.54,4.26Z"/>
      <path class="cls-1" d="M547.91,425.4c1.18.79,1.91,1.87,2.14,3.25-1.15,1.38-2.9-.08-3.96,1.15-2.33,3.18-1.98,7.68-4.75,10.62-1.49-.24-1.72-1.31-1.99-2.18-.97-3.11-2.64-5.51-5.84-6.3q-1.6-3.24.92-5.34c1.75-.02,3.05.98,4.13,2.29,1.03,1.24,1.98,2.57,3.23,4.2,1.74-3.13,1.89-7.11,6.12-7.69Z"/>
      <path class="cls-1" d="M72.42,563.48c.62-2.78,1.32-5.13,2.88-7.42,3.66,1.61,7.12,3.19,8.15,7.39-.16,2.49-1.5,4.21-3.07,6.08-3.42-1.01-6.48-2.28-7.96-6.05Z"/>
      <path class="cls-1" d="M202.41,703.07c-3.32-1.19-6.38-2.33-8.17-5.32.31-2.76,1.08-5.04,3.19-6.89,2.49.51,4.69,1.67,6.79,2.98,1.48.92,1.87,2.4,1.38,4.01-.57,1.85-1.29,3.65-3.19,5.22Z"/>
      <path class="cls-1" d="M442.3,691.38c2.44-.31,4.36.46,6.1,1.63,2.44,1.64,3.07,3.84,1.93,6.53-.54,1.28-1.18,2.52-2.67,3.47-3.14-.98-6.3-2.12-8.15-5.18.07-2.62,1.2-4.49,2.79-6.44Z"/>
      <path class="cls-1" d="M742.06,553.4c1.06-3.45,4.45-5.66,4.8-9.45.04-.39-.15-.8-.19-1.02-.97-1.6-2.99-1.16-3.92-2.49.53-3.45,1.09-3.95,5.47-4.91,1.19.16,2.05.81,2.61,1.86.48.89.67,1.87.45,2.83-1.27,5.59-3.63,10.46-9.21,13.18Z"/>
      <path class="cls-1" d="M233.3,555.45c.48-2.08,2.11-3.57,2.86-5.51.49-1.27,1.46-2.4,1-3.92-.8-1.59-2.85-.98-3.86-2.21-.31-3.56,1.14-4.71,6.21-4.86,1.8,1.14,2.54,2.96,2.19,4.97-.89,5.15-3.23,9.39-8.23,11.7,0,0-.18-.17-.18-.17Z"/>
      <path class="cls-1" d="M623.55,754.96c-.81-1.47-2.54-1.29-3.51-2.27-.27-3.21.33-3.9,4.46-5.08,1.86.38,2.68,1.76,3.1,3.27.5,7.03-3.98,10.73-8.82,14.23-.75-.55-.19-1.02.13-1.34,1.6-1.59,2.7-3.53,3.92-5.39.69-1.06,1.24-2.2.72-3.4Z"/>
      <path class="cls-1" d="M430.44,434.54c-.23-3.55-.91-6.48-2.39-9.18-1.46-2.68-4.04-4.57-5.17-7.19.02-1.21.47-1.86,1.39-2.28.32.04.77,0,1.12.16,2.83,1.29,4.5,3.69,5.67,6.4,1.53,3.56,1.5,7.29.61,11.02-.05.21-.39.35-1.25,1.07Z"/>
      <path class="cls-1" d="M108.18,552.26c1.64,1.12,2.95-.11,4.25.76.66,1.33-.09,2.56-.74,3.73-.88,1.57-2.34,2.25-3.78,1.94-1.51-.33-2.62-1.48-2.77-3.22-.13-1.51-.17-3.06.05-4.55.44-3,1.07-5.98,1.67-8.96.07-.33.46-.6.65-.84.87-.03,1.14.54,1.11,1.06-.08,1.23-.32,2.45-.49,3.68-.3,2.18-.63,4.36.05,6.4Z"/>
      <path class="cls-1" d="M515.37,645.96c-.72-.06-1-.44-1.01-.84-.1-4.3-2.36-7.62-4.94-10.77-.81-.99-1.47-2.02-1.51-3.35-.02-.6.15-1.08.96-1.57,3.3.47,4.74,3.38,6.09,5.95,1.75,3.34,2.31,7,.41,10.57Z"/>
      <path class="cls-1" d="M296.67,645.99c-.22-.39-.49-.71-.57-1.06-.9-3.99-2.59-7.57-5.34-10.65-1.33-1.49-1.24-1.57-.93-4.35,3.73,1.03,5.56,3.83,7,7,1.62,3.56,1.57,5.96-.16,9.08Z"/>
      <path class="cls-1" d="M585.84,720.93c.24-4.72,1.74-11.39,3.16-13.9,0,3.76-1.98,7.18-.75,10.49.98,1.67,2.72,1.01,3.8,1.79.13.29.36.54.34.77-.14,1.72-.53,3.46-2.49,3.85-2.18.43-3.18-1.18-4.06-3.01Z"/>
      <path class="cls-1" d="M205.68,470.2c1.12,3.05-.73,5.7.46,8.19.69,1.25,2.38.55,3.2,1.56q-.53,2.81-3.14,4.25c-1.61-.24-2.62-1.37-2.51-2.82.23-3.31-.08-6.65.68-9.92.07-.32.55-.55,1.31-1.26Z"/>
      <path class="cls-1" d="M546.3,508.66c-1.88-.65-2.73-1.84-2.86-3.5-.25-3.2.56-6.26,1.23-9.25.94-.13,1.3.26,1.31.88.03,1.25-.03,2.5-.02,3.74,0,1.1-.18,2.23.42,3.11.91,1.04,2.34-.1,3.11,1.01q-.63,2.46-3.19,4.02Z"/>
      <path class="cls-1" d="M639.2,464.72c.97,1.35,2.44.65,3.29,1.74-.05,2.02-1.27,3.11-3.04,3.65-1.39-.18-2.15-.96-2.61-2.03-.58-1.32-.54-2.75-.33-4.11.31-1.96.17-4.07,1.28-5.8,1.23.15,1.19.91,1.23,1.58.09,1.77-.43,3.6.18,4.97Z"/>
      <path class="cls-1" d="M492.88,475.75c.89,2.45-1.17,4.63.11,6.75.72,1.19,2.38.72,3.31,2.02.12,1.58-.96,2.56-2.09,3.38-1.85.3-3.09-.48-3.36-1.96-.6-3.28-.99-6.62,1.01-9.65.13-.19.46-.25,1.03-.53Z"/>
      <path class="cls-1" d="M309.27,537.43c.83,1.42,2.36.81,3.03,1.83.25,1.07-.09,1.92-.94,2.61-1.18.61-2.37.57-3.57-.06-1.18-.98-1.45-2.32-1.41-3.75.06-2.47,1.12-5.53,2.62-7.66,1.17.42.69,1.37.57,2.08-.31,1.76-1.01,3.5-.3,4.94Z"/>
      <path class="cls-1" d="M431.9,465.68c1.59,2.53-.83,5.28.65,7.8.71,1.21,2.52.18,3.28,1.76-.42,1.62-1.71,2.52-3.27,3.26-1.87-.72-2.28-2.34-2.76-3.89.25-3.07.54-6.08,2.09-8.93Z"/>
      <path class="cls-1" d="M77.07,475.35c.96-8.08,1.05-8.45,2.62-10.29.61,1.49-.31,2.77-.32,4.1,0,1.23-.14,2.48.26,3.41.89,1.06,2.12.26,2.93,1.19.67,2.38-.99,3.31-2.66,4.18-1.61-.17-2.23-1.2-2.83-2.58Z"/>
      <path class="cls-1" d="M38.61,536.62c1.34,1.4,2.83.16,3.6,1.75-.61,1.67-2.02,2.59-3.7,3.29-1.85-1.4-2.25-3.22-2.21-5.25.06-2.65,1.17-5.05,1.39-7.7,1.58.35.93,1.11.88,1.67-.09.83-.27,1.64-.33,2.47-.05.69-.03,1.39.04,2.08.07.67.25,1.33.32,1.69Z"/>
      <path class="cls-1" d="M198.82,741.7c1.04.73,2.19.33,3,1.17,0,.34.13.8-.02,1.12-.57,1.17-1.44,2.04-2.82,2.21-1.52-.21-2.41-1.29-2.24-2.57.39-2.84.37-5.78,1.45-8.6,1.12.39.71,1.14.58,1.67-.4,1.63-.92,3.23.05,4.99Z"/>
      <path class="cls-1" d="M444.7,746.32c-1.26-.17-1.95-.59-2.53-1.59-.89-3.04,1-5.97,1.22-9.13.62,1.89-.07,3.92.57,5.54.66,1.35,1.95.57,2.9,1.41.36,1.7-.33,2.97-2.17,3.76Z"/>
      <path class="cls-1" d="M323.66,679.84c-.54,1.2-1.38,1.83-2.62,2.09-.3-.15-.78-.24-.98-.53-2.2-3.01-1.61-6.08-.14-9.82,1.16,2.26.28,4.29,1.21,6.01.47.98,1.99.81,2.54,2.25Z"/>
      <path class="cls-1" d="M232.62,556.42c-.07.09-.14.17-.22.26-.05-.05-.11-.11-.16-.16.09-.07.17-.14.26-.21,0,0,.11.11.11.11Z"/>
      <path class="cls-1" d="M232.51,556.31c.27-.28.53-.57.8-.85,0,0,.17.17.18.17-.29.26-.57.53-.86.79,0,0-.11-.11-.11-.11Z"/>
    </g>
  </g>
</svg>